<svg xmlns="http://www.w3.org/2000/svg" viewBox="0 0 400 500" role="img" aria-label="Hero — lead creator portrait (placeholder illustration)">
  <title>Hero — lead creator portrait (placeholder illustration)</title>
  <defs>
    <linearGradient id="bg-1" x1="0" y1="0" x2="1" y2="1">
      <stop offset="0%" stop-color="#FFF0EC" />
      <stop offset="100%" stop-color="#FFE3D8" />
    </linearGradient>
    <linearGradient id="line-1" x1="0" y1="0" x2="1" y2="1">
      <stop offset="0%" stop-color="#FF9A45" />
      <stop offset="100%" stop-color="#FF4550" />
    </linearGradient>
  </defs>
  <rect width="400" height="500" fill="url(#bg-1)" />
  <circle cx="200" cy="150" r="150" fill="#FF9A45" opacity="0.06" />
  <path d="M 148 210
    C 130 170, 138 118, 200 112
    C 262 118, 270 170, 252 210
    C 248 230, 156 246, 200 250
    C 156 246, 152 230, 148 210 Z
    M 200 250
    C 150 260, 92 288, 78 340
    L 78 430
    C 78 430, 200 452, 322 430
    L 322 340
    C 308 288, 250 260, 200 250 Z" fill="none" stroke="#28182F" stroke-width="2.5" stroke-linecap="round" stroke-linejoin="round" opacity="0.85" />
  <path d="M 40 470 C 140 440, 260 440, 360 470" fill="none" stroke="url(#line-1)" stroke-width="3" stroke-linecap="round" opacity="0.9" />
</svg>